<svg id="Layer_1" data-name="Layer 1" xmlns="http://www.w3.org/2000/svg" viewBox="0 0 1461.49 299.98"><defs><style>.cls-1{opacity:0.15;}.cls-2{fill:#fff;}</style></defs><title>specSection</title><rect x="-4.57" y="-1.35" width="1497.36" height="306.1"/><g class="cls-1"><path class="cls-2" d="M594.35,14.21a15,15,0,0,1,14.83,0l19.74,11.23a15,15,0,0,1,7.59,13v22a15,15,0,0,1-7.59,13L609.18,84.79a15,15,0,0,1-14.83,0L574.61,73.56a15,15,0,0,1-7.59-13v-22a15,15,0,0,1,7.59-13Z"/></g><g class="cls-1"><path class="cls-2" d="M46.08,192.38a15,15,0,0,1,14.89,0l34,19.37a15.14,15.14,0,0,1,7.62,13.14v38.35a15.12,15.12,0,0,1-7.62,13.14L61,295.75a15,15,0,0,1-14.89,0L12.13,276.38a15.12,15.12,0,0,1-7.62-13.14V224.89a15.14,15.14,0,0,1,7.62-13.14Z"/></g></svg>