<svg width="69" height="69" viewBox="0 0 69 69" fill="none" xmlns="http://www.w3.org/2000/svg">
<g clip-path="url(#clip0_0_172)">
<path d="M57.5 23H48.875V11.5H8.625C5.44812 11.5 2.875 14.0731 2.875 17.25V48.875H8.625C8.625 53.6331 12.4919 57.5 17.25 57.5C22.0081 57.5 25.875 53.6331 25.875 48.875H43.125C43.125 53.6331 46.9919 57.5 51.75 57.5C56.5081 57.5 60.375 53.6331 60.375 48.875H66.125V34.5L57.5 23ZM17.25 53.1875C14.8638 53.1875 12.9375 51.2612 12.9375 48.875C12.9375 46.4888 14.8638 44.5625 17.25 44.5625C19.6362 44.5625 21.5625 46.4888 21.5625 48.875C21.5625 51.2612 19.6362 53.1875 17.25 53.1875ZM56.0625 27.3125L61.7119 34.5H48.875V27.3125H56.0625ZM51.75 53.1875C49.3638 53.1875 47.4375 51.2612 47.4375 48.875C47.4375 46.4888 49.3638 44.5625 51.75 44.5625C54.1362 44.5625 56.0625 46.4888 56.0625 48.875C56.0625 51.2612 54.1362 53.1875 51.75 53.1875Z" fill="#FFA33D"/>
</g>
<defs>
<clipPath id="clip0_0_172">
<rect width="69" height="69" fill="white"/>
</clipPath>
</defs>
</svg>
