<svg width="21" height="21" viewBox="0 0 21 21" fill="none" xmlns="http://www.w3.org/2000/svg">
<g clip-path="url(#clip0_0_52)">
<path d="M4.2 2.1H21L17.85 11.55H4.2C3.92152 11.55 3.65445 11.6606 3.45754 11.8575C3.26062 12.0545 3.15 12.3215 3.15 12.6C3.15 12.8785 3.26062 13.1455 3.45754 13.3425C3.65445 13.5394 3.92152 13.65 4.2 13.65H17.85V15.75H4.2C3.36457 15.75 2.56335 15.4181 1.97261 14.8274C1.38187 14.2366 1.05 13.4354 1.05 12.6C1.05 11.7646 1.38187 10.9634 1.97261 10.3726C2.56335 9.78187 3.36457 9.45 4.2 9.45H4.5465L3.15 5.25L2.1 2.1H0V0H3.15C3.42848 0 3.69555 0.110625 3.89246 0.307538C4.08938 0.504451 4.2 0.771523 4.2 1.05V2.1ZM5.25 21C4.69305 21 4.1589 20.7787 3.76508 20.3849C3.37125 19.9911 3.15 19.457 3.15 18.9C3.15 18.343 3.37125 17.8089 3.76508 17.4151C4.1589 17.0212 4.69305 16.8 5.25 16.8C5.80695 16.8 6.3411 17.0212 6.73492 17.4151C7.12875 17.8089 7.35 18.343 7.35 18.9C7.35 19.457 7.12875 19.9911 6.73492 20.3849C6.3411 20.7787 5.80695 21 5.25 21ZM15.75 21C15.193 21 14.6589 20.7787 14.2651 20.3849C13.8712 19.9911 13.65 19.457 13.65 18.9C13.65 18.343 13.8712 17.8089 14.2651 17.4151C14.6589 17.0212 15.193 16.8 15.75 16.8C16.307 16.8 16.8411 17.0212 17.2349 17.4151C17.6287 17.8089 17.85 18.343 17.85 18.9C17.85 19.457 17.6287 19.9911 17.2349 20.3849C16.8411 20.7787 16.307 21 15.75 21Z" fill="black"/>
</g>
<defs>
<clipPath id="clip0_0_52">
<rect width="21" height="21" fill="white"/>
</clipPath>
</defs>
</svg>
