<svg width="24" height="24" viewBox="0 0 24 24" fill="none" xmlns="http://www.w3.org/2000/svg">
<circle cx="12" cy="12" r="12" fill="#2F9379"/>
<path d="M17.333 9.33317L11.9997 12.6665L6.66634 9.33317V7.99984L11.9997 11.3332L17.333 7.99984V9.33317ZM17.333 6.6665H6.66634C5.92634 6.6665 5.33301 7.25984 5.33301 7.99984V15.9998C5.33301 16.3535 5.47348 16.6926 5.72353 16.9426C5.97358 17.1927 6.31272 17.3332 6.66634 17.3332H17.333C17.6866 17.3332 18.0258 17.1927 18.2758 16.9426C18.5259 16.6926 18.6663 16.3535 18.6663 15.9998V7.99984C18.6663 7.64622 18.5259 7.30708 18.2758 7.05703C18.0258 6.80698 17.6866 6.6665 17.333 6.6665Z" fill="white"/>
</svg>
