<svg width="24" height="24" viewBox="0 0 24 24" fill="none" xmlns="http://www.w3.org/2000/svg">
<circle cx="12" cy="12" r="12" fill="#2F9379"/>
<path d="M12.0001 9.91718C10.8533 9.91718 9.91732 10.8531 9.91732 12C9.91732 13.1469 10.8533 14.0828 12.0001 14.0828C13.147 14.0828 14.0829 13.1469 14.0829 12C14.0829 10.8531 13.147 9.91718 12.0001 9.91718ZM18.247 12C18.247 11.1375 18.2548 10.2828 18.2064 9.42186C18.1579 8.42186 17.9298 7.53436 17.1986 6.80311C16.4658 6.0703 15.5798 5.84374 14.5798 5.7953C13.7173 5.74686 12.8626 5.75468 12.0017 5.75468C11.1392 5.75468 10.2845 5.74686 9.42357 5.7953C8.42357 5.84374 7.53607 6.07186 6.80482 6.80311C6.07201 7.53593 5.84545 8.42186 5.79701 9.42186C5.74857 10.2844 5.75639 11.1391 5.75639 12C5.75639 12.8609 5.74857 13.7172 5.79701 14.5781C5.84545 15.5781 6.07357 16.4656 6.80482 17.1969C7.53764 17.9297 8.42357 18.1562 9.42357 18.2047C10.2861 18.2531 11.1408 18.2453 12.0017 18.2453C12.8642 18.2453 13.7189 18.2531 14.5798 18.2047C15.5798 18.1562 16.4673 17.9281 17.1986 17.1969C17.9314 16.4641 18.1579 15.5781 18.2064 14.5781C18.2564 13.7172 18.247 12.8625 18.247 12ZM12.0001 15.2047C10.2267 15.2047 8.79545 13.7734 8.79545 12C8.79545 10.2266 10.2267 8.7953 12.0001 8.7953C13.7736 8.7953 15.2048 10.2266 15.2048 12C15.2048 13.7734 13.7736 15.2047 12.0001 15.2047ZM15.3361 9.41249C14.922 9.41249 14.5876 9.07811 14.5876 8.66405C14.5876 8.24999 14.922 7.91561 15.3361 7.91561C15.7501 7.91561 16.0845 8.24999 16.0845 8.66405C16.0846 8.76237 16.0654 8.85975 16.0278 8.95061C15.9902 9.04147 15.9351 9.12403 15.8656 9.19355C15.796 9.26307 15.7135 9.3182 15.6226 9.35577C15.5318 9.39334 15.4344 9.41261 15.3361 9.41249Z" fill="white"/>
</svg>
