<svg width="107" height="65" viewBox="0 0 107 65" fill="none" xmlns="http://www.w3.org/2000/svg">
<path d="M44.7567 29.1438C45.4584 28.7347 46.204 28.3474 46.9579 28.038C47.1071 27.2822 47.1573 26.4936 47.1167 25.7255C46.4658 25.1627 46.0091 24.4069 46.0046 23.5134C45.9968 21.9483 47.3194 20.8831 48.6548 20.3569C51.0226 19.4242 54.6164 19.4242 56.9843 20.3569C58.3203 20.8831 59.6428 21.9483 59.6345 23.5134C59.63 24.4069 59.1732 25.1627 58.5229 25.7255C58.4824 26.4936 58.5319 27.2822 58.6812 28.038C59.4351 28.3474 60.1812 28.7347 60.883 29.1438C63.0746 28.7385 65.6688 29.2924 67.3406 30.7628C70.6618 33.6839 70.3807 39.1444 69.5155 43.0696C67.6192 51.6699 61.5359 61.3489 53.1723 64.8521L52.8198 65L52.4667 64.8521C44.1031 61.3489 38.0205 51.6699 36.1235 43.0696C35.2584 39.1444 34.9773 33.6839 38.2984 30.7628C39.9702 29.2924 42.5651 28.7385 44.7567 29.1438Z" fill="black"/>
<path d="M55.6348 26.0896C53.8942 26.5142 51.7444 26.5142 50.0038 26.0896C50.0205 28.0078 49.5883 29.4564 49.4036 29.9851C49.825 30.3872 50.3357 30.6715 51.0909 31.0111C49.9787 30.9815 49.0595 30.6914 48.5713 30.5023C48.1165 30.6522 47.6295 30.8715 47.187 31.0948C48.4503 31.801 49.688 32.5903 50.8947 32.5903C47.5067 33.4639 42.6681 29.0672 39.383 33.9186C35.8381 39.8128 42.5208 57.2038 52.8193 61.8712C63.1172 57.2038 69.7999 39.8128 66.2556 33.9186C62.9699 29.0672 58.1313 33.4639 54.7439 32.5903C55.9507 32.5903 57.1876 31.801 58.451 31.0948C58.0084 30.8715 57.5221 30.6522 57.0674 30.5023C56.5785 30.6914 55.6593 30.9815 54.5477 31.0111C55.3029 30.6715 55.813 30.3872 56.2343 29.9851C56.0497 29.4564 55.6181 28.0078 55.6348 26.0896Z" fill="#E79E12"/>
<path d="M39.8477 37.6194C43.5303 44.6894 48.7265 44.5189 52.8195 42.2907C54.7248 41.2531 56.5382 38.7811 58.1997 37.3917C56.2982 38.6306 54.5151 38.8461 52.8195 38.5424C48.5946 37.7873 40.1989 29.7318 39.8477 37.6194Z" fill="#2F9379"/>
<path d="M52.8194 41.2665C48.7264 43.4948 44.2076 43.8273 39.8476 37.6193C39.7813 39.1161 40.0084 40.705 40.2554 41.8815C40.99 45.3846 42.5312 48.9495 44.4256 51.978C46.4602 55.2303 49.3343 58.5244 52.8194 60.3055C56.3039 58.5244 59.178 55.2303 61.2126 51.978C63.107 48.9495 64.6489 45.3846 65.3828 41.8815C65.8099 39.8443 66.1805 36.574 65.0651 34.677C64.6727 34.1039 64.2256 33.6388 63.6602 33.3468C62.1614 33.9701 60.3018 35.6336 58.1996 37.3916C56.5381 38.781 54.7248 40.229 52.8194 41.2665Z" fill="#FBC2B7"/>
<path d="M52.8193 60.3055C59.0396 57.4038 64.1129 48.3056 65.485 41.7631C65.9018 39.7748 66.2749 36.5328 65.1885 34.677C64.6172 33.8453 63.9322 33.2477 62.9036 33.1126C62.0224 32.9975 61.0182 33.2149 60.164 33.4233C59.2699 33.642 58.3455 33.9109 57.4135 34.0666C59.688 34.2377 62.9808 32.7775 63.1217 37.4797C63.2818 42.8335 59.4461 55.1421 52.8193 60.3055Z" fill="black"/>
<path d="M49.0869 7.74194C47.8859 8.47203 46.7976 10.1451 48.535 11.1357C46.9822 10.9215 46.6361 8.85027 49.0869 7.74194Z" fill="black"/>
<path d="M48.2821 13.5673C47.8594 14.1971 47.8427 15.1993 48.3901 15.7686C47.6111 15.5215 47.4664 14.053 48.2821 13.5673Z" fill="black"/>
<path d="M52.9759 17.2545C53.0242 16.9367 53.0872 16.601 52.9238 16.2337C53.1625 16.2858 53.3529 16.9194 52.9759 17.2545Z" fill="black"/>
<path d="M57.9332 13.245C59.0628 12.376 58.985 10.3465 57.8496 9.50512C59.5941 10.3356 59.2654 12.8494 57.9332 13.245Z" fill="black"/>
<path d="M56.0392 5.80847C57.3881 3.97263 55.2828 3.20072 53.4727 3.34996C57.2447 2.8881 57.2389 5.01727 56.0392 5.80847Z" fill="black"/>
<path d="M48.2322 14.4217C48.5275 11.5078 55.5827 12.8914 55.5119 11.7593C55.4791 10.9565 48.88 12.3981 47.9698 10.1962C47.0422 7.95189 53.9167 5.86453 54.2158 4.85912C54.4287 4.1419 51.9946 4.15605 51.655 4.12453C53.3223 3.09596 57.4616 3.45747 55.8419 5.66319C54.8282 7.04361 53.1763 7.75183 51.7785 8.64917C49.7008 9.98392 56.224 8.60478 57.7035 9.70217C58.7411 10.4715 58.7507 12.3061 57.7846 13.0503C56.9355 13.7039 54.7387 14.2731 52.3015 14.3465C51.938 14.3574 50.0771 14.3439 50.1852 14.8887C50.2083 15.3364 52.2461 15.3068 52.7009 16.3335C53.0817 17.1922 51.9457 18.343 53.8408 18.8267C51.9914 18.8679 51.7656 17.9924 51.7116 17.4469C51.5424 15.7372 47.9872 16.8442 48.2322 14.4217Z" fill="black"/>
<path d="M0 27.4958C0.955231 34.4674 4.02291 38.7187 7.58717 40.1737C7.60583 43.4344 10.238 46.1824 13.2182 46.9716C13.8718 48.2768 18.0786 55.7141 27.5177 52.1717C28.8197 52.5062 30.3178 52.5679 32.007 52.2431C38.3514 51.0248 41.2248 42.7577 36.778 37.3653C35.4304 35.7314 33.5367 34.5658 31.3785 34.1503C20.8819 32.1305 10.4451 29.7704 0 27.4958Z" fill="black"/>
<path d="M16.8297 46.8806C17.4904 46.6478 18.1227 46.2831 18.6978 45.7685C12.3566 45.1741 11.0282 42.2376 10.7684 40.7318C12.2195 40.6649 13.6746 40.1689 15.0383 39.2375C7.83642 39.3353 5.0254 34.5263 3.97754 31.5603C12.9008 33.5132 21.8214 35.4899 30.7922 37.2164C35.6179 38.1453 37.455 44.1288 33.9692 47.614C28.8335 52.7503 20.6648 46.2123 24.3372 40.0911C20.5207 41.0734 20.4622 46.5886 23.6412 49.9129C20.075 50.2526 17.9117 48.299 16.8297 46.8806Z" fill="#E9E8E7"/>
<path d="M15.0383 39.2376C7.83642 39.3354 5.0254 34.5264 3.97754 31.5604C12.9008 33.5133 21.8214 35.49 30.7922 37.2165C33.939 37.8218 35.8141 40.5769 35.7723 43.3866C35.5548 39.6532 30.7549 38.0907 30.7549 38.0907L6.50102 33.0476C8.0384 37.8025 15.0383 39.2376 15.0383 39.2376Z" fill="black"/>
<path d="M18.6979 45.7686C12.3567 45.1742 11.0284 42.2384 10.7686 40.7319C12.2191 40.665 13.6748 40.169 15.0385 39.2376C15.0385 39.2376 13.8195 41.0413 12.3786 41.5212C12.3786 41.5212 13.7018 44.9587 18.6979 45.7686Z" fill="#CCCCC9"/>
<path d="M16.8301 46.8806C17.4907 46.6478 18.123 46.2831 18.6981 45.7685C18.608 46.3358 18.1108 46.8414 18.1108 46.8414C19.1985 48.1479 21.0164 48.6187 21.0164 48.6187C18.6633 41.3667 24.3375 40.0911 24.3375 40.0911C20.5211 41.0734 20.4625 46.5886 23.6415 49.9129C20.0759 50.2526 17.912 48.299 16.8301 46.8806Z" fill="#CCCCC9"/>
<path d="M35.7719 43.3867C35.7494 44.8861 35.1821 46.401 33.9689 47.6142C28.8332 52.7505 20.6645 46.2125 24.3368 40.0913C23.0053 45.283 30.6484 52.0037 35.7719 43.3867Z" fill="#CCCCC9"/>
<path d="M106.344 27.4958C105.389 34.4674 102.321 38.7187 98.7571 40.1737C98.7385 43.4344 96.1063 46.1824 93.1261 46.9716C92.4726 48.2768 88.2657 55.7141 78.8266 52.1717C77.5246 52.5062 76.0265 52.5679 74.3373 52.2431C67.9929 51.0248 65.1195 42.7577 69.5663 37.3653C70.9139 35.7314 72.8077 34.5658 74.9658 34.1503C85.4624 32.1305 95.8992 29.7704 106.344 27.4958Z" fill="black"/>
<path d="M89.5141 46.8806C88.8535 46.6478 88.2212 46.2831 87.6461 45.7685C93.9873 45.1741 95.3156 42.2376 95.5755 40.7318C94.1243 40.6649 92.6693 40.1689 91.3056 39.2375C98.5075 39.3353 101.318 34.5263 102.366 31.5603C93.4431 33.5132 84.5225 35.4899 75.5517 37.2164C70.726 38.1453 68.8889 44.1288 72.3747 47.614C77.5104 52.7503 85.6791 46.2123 82.0067 40.0911C85.8232 41.0734 85.8817 46.5886 82.7027 49.9129C86.2689 50.2526 88.4322 48.299 89.5141 46.8806Z" fill="#E9E8E7"/>
<path d="M91.306 39.2376C98.5072 39.3354 101.319 34.5264 102.367 31.5604C93.4429 33.5133 84.5229 35.49 75.552 37.2165C72.4052 37.8218 70.5302 40.5769 70.572 43.3866C70.7894 39.6532 75.5894 38.0907 75.5894 38.0907L99.8426 33.0476C98.3058 37.8025 91.306 39.2376 91.306 39.2376Z" fill="black"/>
<path d="M87.6465 45.7686C93.9877 45.1742 95.316 42.2384 95.5759 40.7319C94.1247 40.665 92.6696 40.169 91.3059 39.2376C91.3059 39.2376 92.5249 41.0413 93.9658 41.5212C93.9658 41.5212 92.642 44.9587 87.6465 45.7686Z" fill="#CCCCC9"/>
<path d="M89.5152 46.8806C88.8546 46.6478 88.2223 46.2831 87.6472 45.7685C87.7373 46.3358 88.2345 46.8414 88.2345 46.8414C87.1468 48.1479 85.3283 48.6187 85.3283 48.6187C87.682 41.3667 82.0078 40.0911 82.0078 40.0911C85.8236 41.0734 85.8828 46.5886 82.7038 49.9129C86.2694 50.2526 88.4333 48.299 89.5152 46.8806Z" fill="#CCCCC9"/>
<path d="M70.5723 43.3867C70.5941 44.8861 71.1621 46.401 72.3747 47.6142C77.511 52.7505 85.6797 46.2125 82.0074 40.0913C83.3389 45.283 75.6958 52.0037 70.5723 43.3867Z" fill="#CCCCC9"/>
<path d="M38.0542 27.3124C38.0542 25.4933 39.5292 24.0189 41.3477 24.0189C39.5292 24.0189 38.0542 22.5446 38.0542 20.7255C38.0542 22.5446 36.5799 24.0189 34.7607 24.0189C36.5799 24.0189 38.0542 25.4933 38.0542 27.3124Z" fill="black"/>
<path d="M36.4184 58.9824C36.4184 57.813 37.3665 56.8655 38.536 56.8655C37.3665 56.8655 36.4184 55.9173 36.4184 54.7479C36.4184 55.9173 35.4702 56.8655 34.3008 56.8655C35.4702 56.8655 36.4184 57.813 36.4184 58.9824Z" fill="black"/>
<path d="M67.0512 26.4241C67.0512 25.3145 67.9505 24.4152 69.0601 24.4152C67.9505 24.4152 67.0512 23.5159 67.0512 22.4063C67.0512 23.5159 66.1519 24.4152 65.043 24.4152C66.1519 24.4152 67.0512 25.3145 67.0512 26.4241Z" fill="black"/>
<path d="M69.9449 60.8601C69.9449 58.868 71.5595 57.2534 73.551 57.2534C71.5595 57.2534 69.9449 55.6388 69.9449 53.6473C69.9449 55.6388 68.3304 57.2534 66.3389 57.2534C68.3304 57.2534 69.9449 58.868 69.9449 60.8601Z" fill="black"/>
<path d="M80.8829 29.2062C80.8829 28.258 81.6515 27.4893 82.5997 27.4893C81.6515 27.4893 80.8829 26.7206 80.8829 25.7718C80.8829 26.7206 80.1142 27.4893 79.166 27.4893C80.1142 27.4893 80.8829 28.258 80.8829 29.2062Z" fill="black"/>
<path d="M24.7994 30.2101C24.7994 28.9126 25.8511 27.8609 27.1485 27.8609C25.8511 27.8609 24.7994 26.8092 24.7994 25.5118C24.7994 26.8092 23.7476 27.8609 22.4502 27.8609C23.7476 27.8609 24.7994 28.9126 24.7994 30.2101Z" fill="black"/>
<path d="M66.141 6.75391C66.141 6.04311 66.7174 5.4674 67.4275 5.4674C66.7174 5.4674 66.141 4.89104 66.141 4.18089C66.141 4.89104 65.5653 5.4674 64.8545 5.4674C65.5653 5.4674 66.141 6.04311 66.141 6.75391Z" fill="black"/>
<path d="M39.6068 2.573C39.6068 1.8622 40.1832 1.28649 40.8933 1.28649C40.1832 1.28649 39.6068 0.710143 39.6068 -9.05991e-06C39.6068 0.710143 39.0311 1.28649 38.3203 1.28649C39.0311 1.28649 39.6068 1.8622 39.6068 2.573Z" fill="black"/>
<path d="M38.9636 13.6691C38.9636 12.9589 39.54 12.3826 40.2501 12.3826C39.54 12.3826 38.9636 11.8068 38.9636 11.0961C38.9636 11.8068 38.3879 12.3826 37.6777 12.3826C38.3879 12.3826 38.9636 12.9589 38.9636 13.6691Z" fill="black"/>
</svg>
