<svg width="24" height="24" viewBox="0 0 24 24" fill="none" xmlns="http://www.w3.org/2000/svg">
<circle cx="12" cy="12" r="12" fill="#2F9379"/>
<path d="M9.18093 5.62604L9.89827 5.3967C10.5716 5.18204 11.2896 5.52937 11.5783 6.20804L12.1509 7.56004C12.4003 8.1487 12.2623 8.84137 11.8083 9.27204L10.5456 10.4707C10.6229 11.188 10.8643 11.894 11.2683 12.5887C11.6521 13.2608 12.167 13.8491 12.7823 14.3187L14.2989 13.812C14.8743 13.6207 15.5003 13.8414 15.8523 14.3594L16.6743 15.566C17.0843 16.1687 17.0109 16.9994 16.5023 17.51L15.9569 18.0574C15.4143 18.602 14.6389 18.8 13.9223 18.576C12.2296 18.048 10.6736 16.4807 9.2536 13.874C7.8316 11.2634 7.3296 9.04737 7.74827 7.2287C7.92427 6.46337 8.46893 5.85337 9.18093 5.62604Z" fill="white"/>
</svg>
