<svg width="29" height="29" viewBox="0 0 29 29" fill="none" xmlns="http://www.w3.org/2000/svg">
<path d="M19.5127 16.8789C20.3623 15.5422 20.8607 13.9563 20.8607 12.2514C20.8607 7.48789 17.0035 3.625 12.2457 3.625C7.48223 3.625 3.625 7.48789 3.625 12.2514C3.625 17.0148 7.48223 20.8777 12.24 20.8777C13.9676 20.8777 15.5762 20.368 16.9242 19.4957L17.315 19.2238L23.4662 25.375L25.375 23.4322L19.2295 17.2811L19.5127 16.8789ZM17.0715 7.43125C18.3572 8.71699 19.0652 10.4275 19.0652 12.2457C19.0652 14.0639 18.3572 15.7744 17.0715 17.0602C15.7857 18.3459 14.0752 19.0539 12.257 19.0539C10.4389 19.0539 8.72832 18.3459 7.44258 17.0602C6.15684 15.7744 5.44883 14.0639 5.44883 12.2457C5.44883 10.4275 6.15684 8.71699 7.44258 7.43125C8.72832 6.14551 10.4389 5.4375 12.257 5.4375C14.0752 5.4375 15.7857 6.14551 17.0715 7.43125Z" fill="black"/>
</svg>
