<svg width="58" height="58" viewBox="0 0 58 58" fill="none" xmlns="http://www.w3.org/2000/svg">
<path d="M16.9167 12.0833C16.9167 14.7527 14.7527 16.9167 12.0833 16.9167C9.41396 16.9167 7.25 14.7527 7.25 12.0833C7.25 9.41396 9.41396 7.25 12.0833 7.25C14.7527 7.25 16.9167 9.41396 16.9167 12.0833ZM50.75 12.0833C50.75 14.7527 48.5861 16.9167 45.9167 16.9167C43.2472 16.9167 41.0833 14.7527 41.0833 12.0833C41.0833 9.41396 43.2472 7.25 45.9167 7.25C48.5861 7.25 50.75 9.41396 50.75 12.0833ZM16.9167 45.9167C16.9167 48.5861 14.7527 50.75 12.0833 50.75C9.41396 50.75 7.25 48.5861 7.25 45.9167C7.25 43.2472 9.41396 41.0833 12.0833 41.0833C14.7527 41.0833 16.9167 43.2472 16.9167 45.9167ZM19.3333 12.0833C19.3333 12.495 19.299 12.8987 19.2331 13.2917H30.2083C31.5431 13.2917 32.625 14.3737 32.625 15.7083V21.75H27.7917C24.455 21.75 21.75 24.455 21.75 27.7917V32.625H15.7083C14.3737 32.625 13.2917 31.5431 13.2917 30.2083V19.2331C12.8987 19.299 12.495 19.3333 12.0833 19.3333C11.236 19.3333 10.4226 19.188 9.66667 18.9208V30.2083C9.66667 33.545 12.3716 36.25 15.7083 36.25H21.75V42.2917C21.75 45.6269 24.4526 48.3309 27.7873 48.3333C27.2786 47.1139 26.9195 45.8166 26.7324 44.4645C25.9287 44.0718 25.375 43.2465 25.375 42.2917V27.7917C25.375 26.4569 26.4569 25.375 27.7917 25.375H42.2917C43.2465 25.375 44.0718 25.9287 44.4645 26.7324C45.8166 26.9195 47.1139 27.2786 48.3333 27.7873C48.3309 24.4526 45.6269 21.75 42.2917 21.75H36.25V15.7083C36.25 12.3716 33.545 9.66667 30.2083 9.66667H18.9208C19.188 10.4226 19.3333 11.236 19.3333 12.0833ZM55.5833 42.2917C55.5833 49.6325 49.6325 55.5833 42.2917 55.5833C34.9508 55.5833 29 49.6325 29 42.2917C29 34.9508 34.9508 29 42.2917 29C49.6325 29 55.5833 34.9508 55.5833 42.2917ZM37.9588 38.6667L39.5212 37.1045C39.9929 36.6326 39.9929 35.8674 39.5212 35.3955C39.0492 34.9237 38.2841 34.9237 37.8121 35.3955L34.1871 39.0205C33.7154 39.4924 33.7154 40.2576 34.1871 40.7295L37.8121 44.3545C38.2841 44.8263 39.0492 44.8263 39.5212 44.3545C39.9929 43.8826 39.9929 43.1174 39.5212 42.6455L37.9588 41.0833H42.8958C45.8988 41.0833 48.3333 43.5179 48.3333 46.5208V47.125C48.3333 47.7922 48.8744 48.3333 49.5417 48.3333C50.2089 48.3333 50.75 47.7922 50.75 47.125V46.5208C50.75 42.1832 47.2335 38.6667 42.8958 38.6667H37.9588Z" fill="#FFA33D"/>
</svg>
