<svg width="58" height="58" viewBox="0 0 58 58" fill="none" xmlns="http://www.w3.org/2000/svg">
<path d="M50.3411 35.7817C50.0466 37.5252 49.2204 39.1351 47.9756 40.3908C46.7307 41.6465 45.1281 42.4868 43.3872 42.7964L44.4545 40.4611L42.909 39.7549L41.0625 43.7952C40.9767 43.9832 40.9622 44.196 41.0219 44.3938C41.0817 44.5917 41.2115 44.761 41.387 44.87L45.1606 47.2138L46.0571 45.7703L43.8955 44.4278C46.2373 43.9594 48.3429 42.6905 49.8512 40.839C51.3594 38.9875 52.1762 36.6687 52.1614 34.2806L50.4622 34.291C50.465 34.7905 50.4245 35.2892 50.3411 35.7817Z" fill="#FFA33D"/>
<path d="M20.9758 22.5077C21.2717 20.7563 22.1042 19.14 23.3582 17.882C24.6122 16.6241 26.226 15.7867 27.9764 15.4854L26.8624 17.9227L28.4078 18.6292L30.2545 14.589C30.3404 14.4011 30.3549 14.1882 30.2952 13.9903C30.2355 13.7924 30.1056 13.6231 29.93 13.5141L26.1564 11.1703L25.2598 12.6138L27.3057 13.8845C24.9893 14.3759 22.9135 15.6515 21.4286 17.496C19.9438 19.3405 19.1409 21.6409 19.1556 24.0088L20.8548 23.9984C20.852 23.4989 20.8925 23.0002 20.9758 22.5077Z" fill="#FFA33D"/>
<path d="M21.3781 49.982L25.61 48.6201V47.5353L21.3781 48.8972V49.982Z" fill="#FFA33D"/>
<path d="M21.3781 48.2497L25.61 46.8878V45.8029L21.3781 47.1649V48.2497Z" fill="#FFA33D"/>
<path d="M54.5756 13.6658C54.5758 12.3454 54.2824 11.0415 53.7166 9.84853C53.1508 8.65553 52.3268 7.60329 51.3043 6.768C50.2817 5.93271 49.0862 5.33528 47.8043 5.01898C46.5224 4.70268 45.1861 4.67542 43.8924 4.93918C42.5986 5.20293 41.3797 5.7511 40.324 6.54399C39.2682 7.33687 38.4019 8.35463 37.788 9.52356C37.174 10.6925 36.8277 11.9833 36.7741 13.3026C36.7205 14.6219 36.9609 15.9365 37.478 17.1514C36.9019 18.5055 36.6704 19.9812 36.8042 21.4467C36.9379 22.9121 37.4328 24.3215 38.2445 25.5489C39.0562 26.7763 40.1594 27.7834 41.4555 28.4802C42.7517 29.1769 44.2003 29.5415 45.6718 29.5415C47.1433 29.5414 48.5919 29.1767 49.8879 28.4798C51.184 27.783 52.2872 26.7758 53.0988 25.5483C53.9104 24.3209 54.4051 22.9114 54.5388 21.446C54.6724 19.9805 54.4408 18.5048 53.8646 17.1508C54.3349 16.0492 54.5767 14.8636 54.5756 13.6658ZM45.6711 20.8709C44.2461 20.8709 42.853 20.4484 41.6681 19.6567C40.4833 18.8649 39.5598 17.7396 39.0144 16.4231C38.4691 15.1065 38.3264 13.6578 38.6044 12.2601C38.8824 10.8624 39.5686 9.57857 40.5763 8.5709C41.584 7.56324 42.8678 6.87701 44.2655 6.599C45.6631 6.32098 47.1119 6.46367 48.4284 7.00901C49.745 7.55436 50.8703 8.47787 51.662 9.66276C52.4538 10.8476 52.8763 12.2407 52.8763 13.6657C52.8742 15.576 52.1144 17.4074 50.7636 18.7582C49.4128 20.109 47.5814 20.8688 45.6711 20.8709Z" fill="#FFA33D"/>
<path d="M45.9769 12.4103H45.3704C45.2041 12.4103 45.0447 12.3443 44.9272 12.2267C44.8096 12.1092 44.7436 11.9498 44.7436 11.7835C44.7436 11.6173 44.8096 11.4579 44.9272 11.3404C45.0447 11.2228 45.2041 11.1568 45.3704 11.1568H48.134V9.74077H46.3796V8.5303H44.9636V9.78168C44.4674 9.88253 44.0263 10.1641 43.7259 10.5718C43.4255 10.9794 43.2873 11.4841 43.3379 11.9879C43.3886 12.4918 43.6246 12.9588 44.0001 13.2985C44.3757 13.6382 44.864 13.8263 45.3704 13.8263H45.9769C46.0808 13.8259 46.1837 13.846 46.2798 13.8855C46.3758 13.925 46.4632 13.983 46.5367 14.0563C46.6103 14.1296 46.6687 14.2167 46.7085 14.3126C46.7484 14.4085 46.7689 14.5114 46.7689 14.6152C46.7689 14.7191 46.7484 14.8219 46.7085 14.9178C46.6687 15.0138 46.6103 15.1009 46.5367 15.1742C46.4632 15.2474 46.3758 15.3055 46.2798 15.345C46.1837 15.3844 46.0808 15.4046 45.9769 15.4042H43.2092V16.8202H44.8033V18.0307H46.2193V16.8061C46.7797 16.7442 47.295 16.47 47.6595 16.0399C48.0239 15.6098 48.2097 15.0563 48.1787 14.4934C48.1476 13.9305 47.9021 13.4009 47.4926 13.0134C47.0831 12.626 46.5407 12.4101 45.9769 12.4102L45.9769 12.4103Z" fill="#FFA33D"/>
<path d="M35.0676 34.8428L35.0668 34.8417C34.8011 34.5451 34.4591 34.3271 34.0781 34.2115L20.6467 30.1519C19.9683 29.9448 19.2435 29.9447 18.5651 30.1516L5.13207 34.2117C4.75138 34.3274 4.40972 34.5453 4.14426 34.8417C4.14232 34.8438 4.14077 34.8463 4.13889 34.8485L4.13877 34.8482C3.78796 35.2441 3.59415 35.7547 3.59389 36.2837V46.964C3.59201 47.4289 3.74065 47.8818 4.01759 48.2551C4.29453 48.6285 4.68488 48.9021 5.13027 49.0352L18.5591 53.1135C19.2404 53.3215 19.9683 53.3216 20.6497 53.114L34.0912 49.0314C34.5339 48.8965 34.9212 48.6225 35.1959 48.2501C35.4706 47.8777 35.6179 47.4267 35.6161 46.964V36.2838C35.6163 35.7528 35.4213 35.2402 35.0684 34.8435L35.0676 34.8428ZM18.9254 51.8042L5.52512 47.7345C5.35941 47.685 5.21416 47.5833 5.11108 47.4444C5.00801 47.3055 4.95266 47.137 4.9533 46.9641V36.2838C4.95358 36.2299 4.9593 36.1762 4.97039 36.1235C4.94774 36.111 4.92786 36.0966 4.9065 36.0832L18.9254 40.3414V51.8042ZM6.61867 35.1826L18.9595 31.4525C19.3809 31.3241 19.8312 31.3242 20.2526 31.4528L32.5923 35.1825L28.6411 36.3826L22.61 34.5648C22.5414 34.5434 22.468 34.5427 22.399 34.5628L19.2313 35.4623C19.1907 35.4738 19.155 35.4983 19.1295 35.5318C19.104 35.5654 19.09 35.6063 19.0897 35.6485C19.0893 35.6907 19.1027 35.7319 19.1277 35.7658C19.1527 35.7998 19.188 35.8248 19.2284 35.837L24.8623 37.5304L19.6051 39.1271L6.61867 35.1826ZM34.2567 46.9641C34.2576 47.1355 34.2033 47.3027 34.1019 47.4409C34.0004 47.5792 33.8572 47.6811 33.6933 47.7316L20.2848 51.8041V40.3414L26.0164 38.6005V42.8153C26.0164 42.8734 26.0298 42.9307 26.0555 42.9828C26.0813 43.0348 26.1187 43.0802 26.1649 43.1155C26.2111 43.1507 26.2648 43.1748 26.3218 43.1858C26.3788 43.1969 26.4377 43.1946 26.4937 43.1792L29.5371 42.341C29.6168 42.3191 29.6871 42.2716 29.7372 42.2058C29.7872 42.1401 29.8143 42.0597 29.8142 41.9771V37.447L34.2365 36.1039C34.25 36.1629 34.2568 36.2232 34.2567 36.2838V46.9641Z" fill="#FFA33D"/>
</svg>
